
<svg width="54px" height="54px" viewBox="0 0 54 54" version="1.1" xmlns="http://www.w3.org/2000/svg" xmlns:xlink="http://www.w3.org/1999/xlink">
    <g id="Page-1" stroke="none" stroke-width="1" fill="none" fill-rule="evenodd">
        <g id="Desktop" transform="translate(-485.000000, -35.000000)" fill="#0A84FF" fill-rule="nonzero">
            <g id="Group" transform="translate(475.000000, 35.000000)">
                <g id="logo" transform="translate(10.000000, 0.000000)">
                    <path d="M11.3671,20.676 C11.624,20.676 11.8784,20.6226 12.1158,20.5187 C12.3532,20.4148 12.5689,20.2625 12.7506,20.0705 C12.9323,19.8785 13.0764,19.6506 13.1747,19.3998 C13.273,19.1489 13.3237,18.88 13.3237,18.6085 C13.3237,14.7699 14.7666,11.0886 17.335,8.37431 C19.9034,5.66002 23.387,4.13516 27.0193,4.13516 C30.6515,4.13516 34.1352,5.66002 36.7035,8.37431 C39.272,11.0886 40.7149,14.7699 40.7149,18.6085 C40.7199,19.1533 40.9284,19.6739 41.2948,20.0572 C41.661,20.4405 42.1558,20.6556 42.6714,20.6556 C43.1869,20.6556 43.6817,20.4405 44.0479,20.0572 C44.4143,19.6739 44.6227,19.1533 44.6278,18.6085 C44.6278,16.1648 44.1723,13.745 43.2875,11.4873 C42.4025,9.22966 41.1055,7.17826 39.4705,5.4503 C37.8352,3.72234 35.8941,2.35165 33.7578,1.41649 C31.6213,0.481322 29.3317,0 27.0193,0 C24.7068,0 22.4172,0.481322 20.2807,1.41649 C18.1444,2.35165 16.2032,3.72234 14.5681,5.4503 C12.933,7.17826 11.636,9.22966 10.7511,11.4873 C9.86616,13.745 9.41071,16.1648 9.41071,18.6085 C9.41071,19.1568 9.61683,19.6827 9.98371,20.0704 C10.3506,20.4582 10.8482,20.676 11.3671,20.676 Z" id="Path"></path>
                    <path d="M52.063,24.8114 L34.8392,24.8114 C36.1145,23.0246 36.8032,20.8469 36.801,18.6088 C36.801,15.8669 35.7703,13.2374 33.9358,11.2986 C32.1011,9.35984 29.6129,8.27066 27.0184,8.27066 C24.4241,8.27066 21.9358,9.35984 20.1011,11.2986 C18.2666,13.2374 17.2359,15.8669 17.2359,18.6088 C17.2359,19.1571 17.442,19.6831 17.809,20.0708 C18.1759,20.4586 18.6736,20.6764 19.1925,20.6764 C19.7115,20.6764 20.2091,20.4586 20.576,20.0708 C20.943,19.6831 21.149,19.1571 21.149,18.6088 C21.149,17.3819 21.4932,16.1827 22.1382,15.1626 C22.7831,14.1425 23.6998,13.3475 24.7723,12.8779 C25.8449,12.4084 27.025,12.2856 28.1636,12.5249 C29.3021,12.7642 30.3481,13.3549 31.1688,14.2224 C31.9898,15.0899 32.5488,16.1951 32.7754,17.3984 C33.0018,18.6016 32.8855,19.8488 32.4414,20.9821 C31.997,22.1156 31.2448,23.0845 30.2795,23.7661 C29.3142,24.4477 28.1794,24.8114 27.0186,24.8114 L1.97612,24.8114 C1.71755,24.8087 1.46103,24.8601 1.22139,24.9629 C0.981753,25.0655 0.763756,25.2174 0.579996,25.4096 C0.396238,25.602 0.250362,25.8307 0.15081,26.0829 C0.0512566,26.3352 0,26.6058 0,26.8791 C0,27.1522 0.0512566,27.4228 0.15081,27.675 C0.250362,27.9273 0.396238,28.156 0.579996,28.3484 C0.763756,28.5405 0.981753,28.6924 1.22139,28.795 C1.46103,28.8978 1.71755,28.9492 1.97612,28.9466939 L52.063,28.9466939 C52.5784,28.9412 53.071,28.7209 53.4338,28.3337 C53.7965,27.9467 54,27.4238 54,26.8791 C54,26.3341 53.7965,25.8113 53.4338,25.4242 C53.071,25.037 52.5784,24.8168 52.063,24.8114 Z" id="Path"></path>
                    <path d="M42.6329,33.324 C42.376,33.324 42.1216,33.3774 41.8842,33.4813 C41.6468,33.5852 41.4311,33.7375 41.2494,33.9295 C41.0677,34.1215 40.9236,34.3494 40.8253,34.6002 C40.727,34.8511 40.6763,35.12 40.6763,35.3915 C40.6763,39.2301 39.2334,42.9114 36.665,45.6257 C34.0966,48.34 30.613,49.8648 26.9807,49.8648 C23.3485,49.8648 19.8648,48.34 17.2965,45.6257 C14.728,42.9114 13.2851,39.2301 13.2851,35.3915 C13.28,34.8467 13.0716,34.3261 12.7052,33.9428 C12.339,33.5595 11.8442,33.3444 11.3286,33.3444 C10.8131,33.3444 10.3183,33.5595 9.9521,33.9428 C9.58567,34.3261 9.37726,34.8467 9.37218,35.3915 C9.37218,37.8352 9.82768,40.255 10.7125,42.5126 C11.5975,44.7703 12.8945,46.8217 14.5295,48.5497 C16.1648,50.2777 18.1059,51.6484 20.2422,52.5835 C22.3787,53.5187 24.6683,54 26.9807,54 C29.2932,54 31.5828,53.5187 33.7193,52.5835 C35.8556,51.6484 37.7968,50.2777 39.4319,48.5497 C41.067,46.8217 42.364,44.7703 43.2489,42.5126 C44.1338,40.255 44.5893,37.8352 44.5893,35.3915 C44.5893,34.8432 44.3832,34.3173 44.0163,33.9295 C43.6494,33.5418 43.1518,33.324 42.6329,33.324 Z" id="Path"></path>
                    <path d="M1.93704,29.1895 L19.1608,29.1895 C17.8855,30.9762 17.1968,33.1539 17.199,35.3921 C17.199,38.1339 18.2297,40.7635 20.0642,42.7022 C21.8989,44.641 24.3871,45.7302 26.9816,45.7302 C29.5759,45.7302 32.0642,44.641 33.8989,42.7022 C35.7334,40.7635 36.7641,38.1339 36.7641,35.3921 C36.7641,34.8437 36.558,34.3178 36.191,33.93 C35.8241,33.5423 35.3264,33.3244 34.8075,33.3244 C34.2885,33.3244 33.7909,33.5423 33.424,33.93 C33.057,34.3178 32.851,34.8437 32.851,35.3921 C32.851,36.6189 32.5068,37.8182 31.8618,38.8383 C31.2169,39.8583 30.3002,40.6534 29.2277,41.1229 C28.1551,41.5924 26.975,41.7153 25.8364,41.476 C24.6979,41.2367 23.6519,40.6459 22.8312,39.7784 C22.0102,38.911 21.4512,37.8057 21.2246,36.6025 C20.9982,35.3993 21.1145,34.1521 21.5586,33.0187 C22.003,31.8853 22.7552,30.9163 23.7205,30.2348 C24.6858,29.5532 25.8206,29.1895 26.9814,29.1895 L52.0239,29.1895 C52.2824,29.1921 52.539,29.1407 52.7786,29.038 C53.0182,28.9354 53.2362,28.7834 53.42,28.5913 C53.6038,28.3989 53.7496,28.1702 53.8492,27.9179 C53.9487,27.6657 54,27.3951 54,27.1218 C54,26.8487 53.9487,26.5781 53.8492,26.3258 C53.7496,26.0736 53.6038,25.8449 53.42,25.6525 C53.2362,25.4603 53.0182,25.3084 52.7786,25.2058 C52.539,25.103 52.2824,25.0516 52.0239,25.0541989 L1.93704,25.0541989 C1.42157,25.0597 0.928963,25.2799 0.566246,25.6672 C0.203526,26.0541989 0,26.577 0,27.1218 C0,27.6667 0.203526,28.1896 0.566246,28.5766 C0.928963,28.9638 1.42157,29.1841 1.93704,29.1895 Z" id="Path"></path>
                </g>
            </g>
        </g>
    </g>
</svg>